<svg width="180" height="157" viewBox="0 0 180 157" fill="none" xmlns="http://www.w3.org/2000/svg">
<g filter="url(#filter0_d_2_3)">
<path d="M34.54 38.22L33.84 36.2C33.1467 36.2 32.4467 36.0933 31.74 35.88C31.5933 36.7333 31.52 37.3467 31.52 37.72C31.52 39.0133 31.72 39.98 32.12 40.62C31.32 41.22 30.4867 41.52 29.62 41.52C28.7533 41.52 28.1333 41.2733 27.76 40.78C27.3867 40.2733 27.2 39.5267 27.2 38.54C27.2 37.54 27.62 34.72 28.46 30.08L27.4 27.94C28.8933 26.98 30.2667 26.5 31.52 26.5C32.48 26.5 33.22 26.7 33.74 27.1C34.74 26.7 35.64 26.5 36.44 26.5C37.6667 26.5 38.64 26.9133 39.36 27.74C40.08 28.5667 40.44 29.56 40.44 30.72C40.44 31.5867 40.22 32.4267 39.78 33.24C39.34 34.04 38.6933 34.6933 37.84 35.2C38.2933 36.4933 38.8 37.6067 39.36 38.54C39.9333 39.4733 40.5 40.0933 41.06 40.4C40.78 40.6933 40.3467 40.9467 39.76 41.16C39.1867 41.3867 38.6667 41.5 38.2 41.5C37.2933 41.5 36.5667 41.2733 36.02 40.82C35.4733 40.3533 34.98 39.4867 34.54 38.22ZM32.62 33.7C33.6867 33.7 34.5133 33.4267 35.1 32.88C35.7 32.3333 36 31.7467 36 31.12C36 30.4933 35.8267 29.9933 35.48 29.62C35.1333 29.2467 34.64 29.06 34 29.06C33.6533 29.06 33.3067 29.1067 32.96 29.2C32.5333 31.7467 32.2667 33.24 32.16 33.68C32.2533 33.6933 32.4067 33.7 32.62 33.7ZM47.288 41.5C45.4613 41.5 44.048 41.0267 43.048 40.08C42.0613 39.1333 41.568 37.8533 41.568 36.24C41.568 34.0933 42.3013 32.3533 43.768 31.02C45.248 29.6733 47.1013 29 49.328 29C50.568 29 51.508 29.28 52.148 29.84C52.788 30.3867 53.108 31.1133 53.108 32.02C53.108 33.26 52.5013 34.2933 51.288 35.12C50.088 35.9333 48.228 36.3467 45.708 36.36C45.748 37.2133 45.9413 37.8867 46.288 38.38C46.6346 38.86 47.068 39.1 47.588 39.1C48.108 39.1 48.5546 38.9267 48.928 38.58C49.3146 38.2333 49.508 37.6667 49.508 36.88C51.4546 36.88 52.428 37.34 52.428 38.26C52.428 39.0467 51.948 39.7867 50.988 40.48C50.028 41.16 48.7946 41.5 47.288 41.5ZM48.988 31.34C48.308 31.34 47.6813 31.68 47.108 32.36C46.548 33.04 46.1413 33.84 45.888 34.76C47.2213 34.6533 48.2213 34.3533 48.888 33.86C49.568 33.3533 49.908 32.82 49.908 32.26C49.908 31.9933 49.8213 31.7733 49.648 31.6C49.488 31.4267 49.268 31.34 48.988 31.34ZM57.2125 41.5C56.4258 41.5 55.8458 41.2933 55.4725 40.88C55.0992 40.4667 54.9125 39.92 54.9125 39.24C54.9125 38.56 55.0458 37.4533 55.3125 35.92C55.5925 34.3867 55.8792 32.9867 56.1725 31.72L55.1325 30.12C56.4525 29.3733 57.6725 29 58.7925 29C59.9125 29 60.4725 29.5067 60.4725 30.52C60.4725 31.1867 60.3192 31.8667 60.0125 32.56L60.2125 32.66C61.6392 30.22 63.4525 29 65.6525 29C67.2658 29 68.0725 29.8067 68.0725 31.42C68.0725 32.1133 67.8725 33.2867 67.4725 34.94C67.0858 36.5933 66.8925 37.84 66.8925 38.68C66.8925 39.52 67.0325 40.1333 67.3125 40.52C66.6058 41.1733 65.8592 41.5 65.0725 41.5C63.5392 41.5 62.7725 40.6733 62.7725 39.02C62.7725 38.4067 62.9725 37.3667 63.3725 35.9C63.7725 34.4333 63.9725 33.48 63.9725 33.04C63.9725 32.44 63.7458 32.14 63.2925 32.14C62.9192 32.14 62.4925 32.3067 62.0125 32.64C61.5325 32.96 61.0658 33.4 60.6125 33.96C60.1725 34.5067 59.7992 35.2067 59.4925 36.06C59.1858 36.9 59.0325 37.76 59.0325 38.64C59.0325 39.5067 59.1725 40.1333 59.4525 40.52C58.7458 41.1733 57.9992 41.5 57.2125 41.5ZM77.5088 38.54L77.3088 38.44C76.9488 39.4 76.4288 40.1533 75.7488 40.7C75.0821 41.2333 74.3354 41.5 73.5088 41.5C72.3754 41.5 71.4688 41.0733 70.7888 40.22C70.1088 39.3667 69.7688 38.2267 69.7688 36.8C69.7688 34.5867 70.5088 32.7333 71.9888 31.24C73.4821 29.7467 75.3354 29 77.5488 29C78.1221 29 78.6488 29.0533 79.1288 29.16C79.2088 29.5333 79.2554 29.86 79.2688 30.14C79.9354 29.7133 80.6221 29.5 81.3288 29.5C82.3021 29.5 82.7888 30.0267 82.7888 31.08C82.7888 31.4533 82.5754 32.58 82.1488 34.46C81.7354 36.34 81.5288 37.7333 81.5288 38.64C81.5288 39.5467 81.7354 40.1733 82.1488 40.52C81.4021 41.1733 80.6221 41.5 79.8088 41.5C79.0088 41.5 78.4221 41.26 78.0488 40.78C77.6888 40.3 77.5088 39.5533 77.5088 38.54ZM73.5288 35.82C73.5288 36.4733 73.6621 36.98 73.9288 37.34C74.2088 37.6867 74.6021 37.86 75.1088 37.86C75.6154 37.86 76.1154 37.6733 76.6088 37.3C77.1021 36.9267 77.5154 36.4133 77.8488 35.76C77.9688 34.4133 78.2288 32.82 78.6288 30.98C77.2821 30.98 76.0954 31.4667 75.0688 32.44C74.0421 33.4133 73.5288 34.54 73.5288 35.82ZM88.1553 41.5C86.982 41.5 86.162 41.2133 85.6953 40.64C85.2286 40.0667 84.9953 39.3467 84.9953 38.48C84.9953 37.6 85.142 36.4 85.4353 34.88C85.7286 33.36 85.8753 32.26 85.8753 31.58C85.8753 30.9 85.7353 30.3667 85.4553 29.98C86.6953 29.3267 87.742 29 88.5953 29C89.142 29 89.5353 29.1133 89.7753 29.34C90.0286 29.5533 90.1553 29.9067 90.1553 30.4C90.1553 30.8933 89.9486 32.1067 89.5353 34.04C89.1353 35.96 88.9353 37.1467 88.9353 37.6C88.9353 38.0533 89.062 38.4133 89.3153 38.68C89.5686 38.9333 89.902 39.06 90.3153 39.06C90.7286 39.06 91.1686 38.9 91.6353 38.58C92.102 38.2467 92.482 37.78 92.7753 37.18C92.962 36.1 93.3286 34.3933 93.8753 32.06L92.6753 30.46C94.022 29.4867 95.302 29 96.5153 29C97.1153 29 97.542 29.1133 97.7953 29.34C98.062 29.5533 98.1953 29.8867 98.1953 30.34C98.1953 30.78 97.9486 32.0533 97.4553 34.16C96.9753 36.2667 96.7353 37.7667 96.7353 38.66C96.7353 39.54 96.942 40.16 97.3553 40.52C96.6086 41.1733 95.822 41.5 94.9953 41.5C94.182 41.5 93.5953 41.32 93.2353 40.96C92.8753 40.6 92.6953 40.1267 92.6953 39.54L92.4953 39.44C92.0553 40.08 91.442 40.5867 90.6553 40.96C89.882 41.32 89.0486 41.5 88.1553 41.5ZM101.949 28.56L100.829 26.96C102.495 25.9867 103.809 25.5 104.769 25.5C105.315 25.5 105.702 25.6133 105.929 25.84C106.155 26.0533 106.269 26.4667 106.269 27.08C106.269 27.68 105.969 29.3867 105.369 32.2C104.782 35.0133 104.489 36.9867 104.489 38.12C104.489 39.2533 104.695 40.0533 105.109 40.52C104.175 41.1733 103.329 41.5 102.569 41.5C101.809 41.5 101.249 41.2533 100.889 40.76C100.542 40.2533 100.369 39.56 100.369 38.68C100.369 37.8 100.615 36 101.109 33.28C101.602 30.56 101.882 28.9867 101.949 28.56ZM108.004 33.78C107.911 33.4067 107.864 33.06 107.864 32.74C107.864 32.0867 108.057 31.5933 108.444 31.26C108.831 30.9267 109.331 30.76 109.944 30.76C109.944 30.0667 109.764 29.3133 109.404 28.5C110.057 28.02 110.651 27.66 111.184 27.42C111.731 27.1667 112.304 27.04 112.904 27.04C113.504 27.04 113.917 27.1533 114.144 27.38C114.384 27.5933 114.504 27.9267 114.504 28.38C114.504 28.8333 114.411 29.54 114.224 30.5C114.757 30.42 115.297 30.3067 115.844 30.16C115.937 30.44 115.984 30.8 115.984 31.24C115.984 31.68 115.811 32.0933 115.464 32.48C115.131 32.8533 114.637 33.04 113.984 33.04H113.684C113.204 35.2133 112.964 36.8867 112.964 38.06C112.964 39.2333 113.171 40.0533 113.584 40.52C112.837 41.1733 112.044 41.5 111.204 41.5C110.364 41.5 109.757 41.2533 109.384 40.76C109.024 40.2533 108.844 39.4733 108.844 38.42C108.844 37.78 109.077 36.1 109.544 33.38C109.011 33.4733 108.497 33.6067 108.004 33.78ZM130.712 38.22L130.012 36.2C129.319 36.2 128.619 36.0933 127.912 35.88C127.765 36.7333 127.692 37.3467 127.692 37.72C127.692 39.0133 127.892 39.98 128.292 40.62C127.492 41.22 126.659 41.52 125.792 41.52C124.925 41.52 124.305 41.2733 123.932 40.78C123.559 40.2733 123.372 39.5267 123.372 38.54C123.372 37.54 123.792 34.72 124.632 30.08L123.572 27.94C125.065 26.98 126.439 26.5 127.692 26.5C128.652 26.5 129.392 26.7 129.912 27.1C130.912 26.7 131.812 26.5 132.612 26.5C133.839 26.5 134.812 26.9133 135.532 27.74C136.252 28.5667 136.612 29.56 136.612 30.72C136.612 31.5867 136.392 32.4267 135.952 33.24C135.512 34.04 134.865 34.6933 134.012 35.2C134.465 36.4933 134.972 37.6067 135.532 38.54C136.105 39.4733 136.672 40.0933 137.232 40.4C136.952 40.6933 136.519 40.9467 135.932 41.16C135.359 41.3867 134.839 41.5 134.372 41.5C133.465 41.5 132.739 41.2733 132.192 40.82C131.645 40.3533 131.152 39.4867 130.712 38.22ZM128.792 33.7C129.859 33.7 130.685 33.4267 131.272 32.88C131.872 32.3333 132.172 31.7467 132.172 31.12C132.172 30.4933 131.999 29.9933 131.652 29.62C131.305 29.2467 130.812 29.06 130.172 29.06C129.825 29.06 129.479 29.1067 129.132 29.2C128.705 31.7467 128.439 33.24 128.332 33.68C128.425 33.6933 128.579 33.7 128.792 33.7ZM149.96 34.88C149.96 36.7467 149.227 38.32 147.76 39.6C146.307 40.8667 144.587 41.5 142.6 41.5C141.08 41.5 139.86 41.0333 138.94 40.1C138.033 39.1533 137.58 37.7867 137.58 36C137.58 34.5333 137.873 33.08 138.46 31.64C139.047 30.1867 139.787 28.9467 140.68 27.92C141.573 26.8933 142.553 26.06 143.62 25.42C144.687 24.78 145.66 24.46 146.54 24.46C147.42 24.46 148.073 24.62 148.5 24.94C148.94 25.2467 149.307 25.7533 149.6 26.46C148.267 26.9133 147.127 27.48 146.18 28.16C145.233 28.8267 144.407 29.7 143.7 30.78C144.167 30.6733 144.6 30.62 145 30.62C146.56 30.62 147.773 31.02 148.64 31.82C149.52 32.6067 149.96 33.6267 149.96 34.88ZM141.78 36.4C141.78 37.08 141.907 37.66 142.16 38.14C142.413 38.6067 142.807 38.84 143.34 38.84C143.873 38.84 144.367 38.5333 144.82 37.92C145.273 37.2933 145.5 36.4333 145.5 35.34C145.5 34.6867 145.373 34.14 145.12 33.7C144.88 33.26 144.493 33.04 143.96 33.04C143.427 33.04 142.927 33.3467 142.46 33.96C142.007 34.56 141.78 35.3733 141.78 36.4Z" fill="white"/>
</g>
<path d="M38.5786 103.011L38.5645 102.844C37.2789 102.715 36.3548 102.19 35.7921 101.268C35.3752 100.585 35.2898 99.8406 35.5357 99.0343C35.7954 98.2314 36.3862 97.5486 37.308 96.9859C38.4517 96.2877 39.7379 96.0532 41.1666 96.2823C41.8672 96.3936 42.5589 96.6919 43.2418 97.1772C43.9332 97.6572 44.5264 98.3027 45.0214 99.1135C45.1151 99.2672 45.2648 99.5507 45.4703 99.9642C45.66 99.8718 45.9011 99.7774 46.1936 99.6808L46.7802 98.3386C48.0546 99.0252 48.8793 99.6757 49.2545 100.29C49.4681 100.64 49.5467 100.932 49.4901 101.166C49.4422 101.394 49.2218 101.628 48.8292 101.868C48.4451 102.102 47.2354 102.577 45.2 103.293C43.1697 104.016 41.7748 104.61 41.0152 105.074C40.2641 105.532 39.8498 105.967 39.7723 106.377C39.0623 106.155 38.5484 105.783 38.2305 105.262C37.9179 104.75 37.8167 104.297 37.9269 103.901C38.0456 103.501 38.2628 103.204 38.5786 103.011ZM39.2638 99.0958C38.7773 99.3928 38.4688 99.7511 38.3382 100.171C38.2129 100.599 38.2648 101 38.4941 101.376C38.7911 101.862 39.2925 102.166 39.9983 102.285C41.6009 101.494 43.0326 100.884 44.2933 100.454C43.6941 99.4727 42.8989 98.8802 41.9078 98.6769C40.9219 98.482 40.0406 98.6217 39.2638 99.0958Z" fill="white"/>
<path d="M45.555 113.766C44.5933 112.79 44.102 111.786 44.0812 110.753C44.0674 109.728 44.4913 108.79 45.3531 107.941C46.4997 106.811 47.8152 106.286 49.2996 106.368C50.7981 106.449 52.1335 107.085 53.3059 108.274C53.9587 108.936 54.304 109.586 54.3419 110.223C54.3868 110.852 54.1672 111.406 53.6829 111.883C53.0205 112.536 52.1492 112.756 51.0688 112.543C50.0026 112.33 48.8025 111.554 47.4687 110.215C47.0339 110.686 46.7761 111.144 46.6951 111.589C46.6212 112.027 46.7211 112.384 46.9949 112.662C47.2687 112.94 47.5964 113.087 47.9782 113.104C48.3669 113.128 48.7714 112.933 49.1916 112.519C50.2165 113.559 50.4832 114.321 49.9918 114.805C49.5716 115.219 48.9236 115.353 48.0479 115.205C47.1792 115.05 46.3483 114.57 45.555 113.766ZM51.877 109.324C51.5189 108.961 51.0074 108.805 50.3423 108.857C49.6843 108.916 49.0429 109.12 48.4181 109.469C49.177 110.125 49.8638 110.501 50.4783 110.598C51.1069 110.694 51.5708 110.595 51.8699 110.3C52.0123 110.16 52.0842 109.998 52.0856 109.814C52.0939 109.637 52.0244 109.474 51.877 109.324Z" fill="white"/>
<path d="M52.6513 122.957C52.1268 122.627 51.8415 122.263 51.7954 121.868C51.7523 121.486 51.8855 121.05 52.1948 120.559C52.4988 120.077 53.2163 119.164 54.3472 117.82C55.4867 116.482 56.4816 115.353 57.3322 114.436L57.2615 112.972C57.978 112.999 58.5746 113.056 59.0512 113.143C59.5332 113.222 59.9603 113.379 60.3325 113.614C60.9416 113.998 60.9928 114.592 60.4862 115.396C60.4168 115.505 60.2586 115.719 60.0114 116.036L60.0983 116.179C60.7276 115.725 61.3816 115.475 62.0601 115.43C62.7441 115.377 63.399 115.547 64.025 115.942C64.6594 116.342 64.9814 116.947 64.991 117.757C65.0059 118.558 64.7467 119.382 64.2134 120.228C63.4988 121.361 62.4505 122.143 61.0687 122.572C60.3916 122.783 59.6367 122.828 58.804 122.705C57.9767 122.573 57.1612 122.254 56.3576 121.747C56.1123 121.593 55.8041 121.369 55.4332 121.076C55.2212 121.356 55.0352 121.623 54.8752 121.877C54.5339 122.418 54.4223 122.886 54.5406 123.279C53.8055 123.395 53.1758 123.288 52.6513 122.957ZM57.6254 118.752L56.4056 120.04C57.4451 120.66 58.4721 120.84 59.4865 120.581C60.5147 120.319 61.2714 119.803 61.7567 119.034C62.0074 118.636 62.127 118.268 62.1156 117.93C62.118 117.589 61.9711 117.325 61.6751 117.138C60.6261 116.477 59.2762 117.015 57.6254 118.752Z" fill="white"/>
<path d="M67.7124 127.655C66.8781 127.375 66.3635 126.975 66.1685 126.456C65.9736 125.937 65.9795 125.37 66.1864 124.753C66.3964 124.128 66.7871 123.309 67.3584 122.299C67.9298 121.288 68.2966 120.541 68.4589 120.057C68.6212 119.574 68.6489 119.161 68.5422 118.82C69.5797 118.651 70.4019 118.668 71.0086 118.872C71.3973 119.003 71.6499 119.177 71.7665 119.396C71.8957 119.608 71.9014 119.889 71.7837 120.24C71.6659 120.591 71.2294 121.404 70.4741 122.68C69.7314 123.95 69.306 124.746 69.1978 125.068C69.0896 125.39 69.0937 125.677 69.2102 125.927C69.3298 126.167 69.5366 126.337 69.8305 126.435C70.1244 126.534 70.4754 126.525 70.8836 126.409C71.295 126.284 71.6765 126.042 72.0283 125.686C72.4188 124.963 73.0868 123.837 74.0324 122.308L73.5611 120.884C74.7509 120.513 75.7771 120.473 76.6398 120.762C77.0664 120.906 77.3427 121.088 77.4688 121.31C77.6075 121.525 77.6227 121.794 77.5145 122.116C77.4095 122.429 76.9302 123.276 76.0766 124.656C75.2325 126.039 74.7039 127.048 74.4907 127.683C74.2806 128.309 74.2796 128.799 74.4875 129.154C73.8007 129.44 73.1634 129.485 72.5757 129.287C71.9974 129.093 71.6232 128.825 71.4532 128.483C71.2831 128.141 71.2681 127.762 71.4081 127.345L71.2898 127.226C70.8242 127.576 70.2672 127.79 69.6188 127.868C68.983 127.939 68.3475 127.868 67.7124 127.655Z" fill="white"/>
<path d="M85.5306 119.503C85.4821 119.88 85.2417 120.182 84.8092 120.409C84.3781 120.625 83.9096 120.701 83.4037 120.636C82.8979 120.571 82.509 120.42 82.2369 120.184C81.9748 119.948 81.8654 119.662 81.9087 119.325C81.9674 118.869 82.2265 118.539 82.6862 118.336C83.1458 118.133 83.6137 118.062 84.0897 118.123C84.5658 118.184 84.9349 118.333 85.1971 118.568C85.4691 118.805 85.5803 119.116 85.5306 119.503ZM81.132 130.779C80.5171 130.7 80.0905 130.489 79.8523 130.146C79.6141 129.803 79.5352 129.319 79.6155 128.694C79.6971 128.059 80.2319 126.409 81.2198 123.743L80.5473 122.386C81.8827 121.802 82.9075 121.556 83.6216 121.647C84.0283 121.7 84.3044 121.826 84.4501 122.026C84.597 122.216 84.6456 122.505 84.5959 122.892C84.5768 123.04 84.2811 123.89 83.7089 125.439C83.1366 126.989 82.8065 128.106 82.7185 128.79C82.6306 129.475 82.7231 129.971 82.9962 130.278C82.3783 130.693 81.7569 130.86 81.132 130.779Z" fill="white"/>
<path d="M92.972 123.623C92.6081 123.751 92.3217 123.926 92.1127 124.147C91.9032 124.358 91.7233 124.658 91.5729 125.046C93.2735 125.209 94.4804 125.508 95.1935 125.942C95.9066 126.376 96.2854 127.028 96.3299 127.896C96.358 128.446 96.2277 128.933 95.9391 129.358C95.6499 129.774 95.276 130.098 94.8174 130.332C93.9185 130.768 93.0247 131.009 92.1358 131.055C89.6091 131.184 88.3179 130.705 88.2622 129.616C88.2341 129.067 88.4507 128.505 88.9119 127.931C89.1795 128.267 89.5693 128.548 90.0814 128.772C90.6036 128.996 91.1043 129.095 91.5837 129.071C92.4126 129.028 92.8933 128.638 93.0257 127.9C91.4985 127.798 90.3826 127.515 89.6779 127.05C88.9733 126.586 88.5977 125.899 88.5511 124.99C88.5143 124.271 88.7181 123.655 89.1625 123.142C89.6168 122.628 90.1886 122.258 90.878 122.032C91.5769 121.796 92.3657 121.656 93.2446 121.611C94.1334 121.565 94.8711 121.698 95.4578 122.008C96.0539 122.308 96.3642 122.698 96.3887 123.177C96.4133 123.657 96.2624 124.035 95.9361 124.312C95.6199 124.588 95.262 124.737 94.8625 124.757C94.473 124.777 94.1081 124.691 93.7678 124.498C93.4375 124.305 93.1722 124.013 92.972 123.623Z" fill="white"/>
<path d="M102.083 126.935C101.931 126.334 101.802 124.964 101.696 122.825C101.036 122.991 100.423 122.95 99.8545 122.702C99.2961 122.451 98.8706 121.95 98.5779 121.198C99.3242 120.845 100.007 120.425 100.627 119.939C101.254 119.44 101.777 119.019 102.196 118.677C102.615 118.334 103.013 118.114 103.391 118.019C104.08 117.845 104.522 118.146 104.718 118.922C104.837 119.397 104.927 120.55 104.987 122.381C105.044 124.203 105.167 125.487 105.356 126.233C105.542 126.97 105.835 127.541 106.236 127.945C105.677 128.467 105.102 128.803 104.51 128.953C103.308 129.256 102.499 128.583 102.083 126.935Z" fill="white"/>
<path d="M113.676 122.293C112.663 122.794 111.762 122.901 110.971 122.612C110.189 122.319 109.601 121.773 109.206 120.976C108.81 120.178 108.677 119.335 108.805 118.445C108.938 117.543 109.287 116.728 109.853 116.001C110.428 115.269 111.186 114.67 112.127 114.204C113.076 113.733 114 113.627 114.898 113.885C115.796 114.143 116.499 114.782 117.005 115.804C117.507 116.816 117.814 117.92 117.926 119.114C118.043 120.295 117.988 121.399 117.76 122.427C117.542 123.451 117.184 124.371 116.684 125.187C116.19 126.013 115.611 126.59 114.948 126.919C113.873 127.452 112.987 127.333 112.292 126.561C113.8 125.211 114.666 123.526 114.892 121.505C114.511 121.817 114.106 122.079 113.676 122.293ZM114.216 117.27C113.989 116.813 113.713 116.47 113.388 116.241C113.062 116.012 112.72 115.986 112.362 116.163C112.003 116.341 111.776 116.716 111.68 117.288C111.58 117.851 111.71 118.496 112.069 119.221C112.287 119.66 112.55 119.988 112.858 120.204C113.174 120.415 113.512 120.432 113.87 120.254C114.229 120.076 114.46 119.71 114.565 119.156C114.674 118.589 114.558 117.96 114.216 117.27Z" fill="white"/>
<path d="M128.109 109.704C129.01 110.776 129.348 112.033 129.123 113.476C128.9 114.904 128.218 116.098 127.077 117.056C126.205 117.79 125.279 118.111 124.3 118.019C123.323 117.913 122.403 117.347 121.541 116.321C120.834 115.479 120.301 114.503 119.943 113.393C119.578 112.275 119.405 111.206 119.423 110.186C119.44 109.165 119.601 108.214 119.904 107.331C120.208 106.449 120.612 105.796 121.118 105.371C121.623 104.947 122.075 104.723 122.475 104.701C122.875 104.665 123.33 104.779 123.84 105.043C123.293 105.947 122.912 106.822 122.696 107.67C122.474 108.509 122.421 109.409 122.537 110.371C122.753 110.084 122.976 109.844 123.206 109.651C124.101 108.899 124.991 108.543 125.875 108.584C126.76 108.611 127.504 108.984 128.109 109.704ZM124.146 114.524C124.474 114.914 124.827 115.186 125.204 115.34C125.574 115.485 125.913 115.429 126.219 115.172C126.525 114.915 126.66 114.501 126.625 113.93C126.583 113.351 126.298 112.748 125.77 112.12C125.455 111.745 125.119 111.492 124.761 111.362C124.411 111.225 124.083 111.285 123.776 111.543C123.47 111.8 123.331 112.217 123.359 112.795C123.388 113.358 123.65 113.934 124.146 114.524Z" fill="white"/>
<path d="M132.653 107.754C132.137 107.375 131.774 106.855 131.566 106.193C131.355 105.517 131.288 104.78 131.366 103.981C130.907 104.066 130.537 104.123 130.255 104.151C129.973 104.18 129.642 104.167 129.261 104.111C128.873 104.049 128.537 103.914 128.255 103.707C127.465 103.127 127.066 102.344 127.058 101.358C127.048 100.358 127.433 99.3259 128.215 98.2619C128.653 97.6654 129.098 97.2108 129.551 96.8982C130.004 96.5856 130.428 96.4132 130.824 96.3812C131.539 96.3359 132.139 96.4908 132.622 96.8459C133.106 97.2009 133.442 97.6645 133.63 98.2367C133.809 98.8029 133.872 99.4192 133.816 100.086C134.516 99.8427 135.199 99.7237 135.865 99.7289C136.523 99.7282 137.07 99.8876 137.505 100.207C138.311 100.799 138.683 101.661 138.62 102.794C138.556 103.913 138.1 105.048 137.254 106.201C136.787 106.838 136.31 107.326 135.826 107.665C135.355 108.002 134.918 108.183 134.514 108.209C133.781 108.279 133.161 108.127 132.653 107.754ZM134.032 103.315L132.958 103.587C132.977 104.271 133.269 104.82 133.833 105.234C134.196 105.5 134.58 105.627 134.986 105.615C135.398 105.595 135.719 105.428 135.95 105.113C136.181 104.799 136.284 104.472 136.261 104.132C136.243 103.784 136.114 103.522 135.872 103.344C135.63 103.167 135.399 103.084 135.179 103.096C134.959 103.108 134.577 103.181 134.032 103.315ZM131.395 99.1265C131.072 98.8898 130.744 98.7791 130.41 98.7945C130.074 98.796 129.8 98.9418 129.587 99.232C129.365 99.5162 129.267 99.8103 129.293 100.114C129.318 100.418 129.455 100.661 129.705 100.845C129.947 101.022 130.289 101.063 130.732 100.966L132.319 100.605C132.251 100.022 131.943 99.5289 131.395 99.1265Z" fill="white"/>
<path d="M91 93V105" stroke="white"/>
<path d="M103 52V105" stroke="#E0E0E0" stroke-width="4"/>
<path d="M80 52V105" stroke="#E0E0E0" stroke-width="4"/>
<path d="M91 73V79V85" stroke="white"/>
<path d="M91 52V64" stroke="white"/>
<defs>
<filter id="filter0_d_2_3" x="23.2" y="24.46" width="130.76" height="25.06" filterUnits="userSpaceOnUse" color-interpolation-filters="sRGB">
<feFlood flood-opacity="0" result="BackgroundImageFix"/>
<feColorMatrix in="SourceAlpha" type="matrix" values="0 0 0 0 0 0 0 0 0 0 0 0 0 0 0 0 0 0 127 0" result="hardAlpha"/>
<feOffset dy="4"/>
<feGaussianBlur stdDeviation="2"/>
<feComposite in2="hardAlpha" operator="out"/>
<feColorMatrix type="matrix" values="0 0 0 0 0 0 0 0 0 0 0 0 0 0 0 0 0 0 0.25 0"/>
<feBlend mode="normal" in2="BackgroundImageFix" result="effect1_dropShadow_2_3"/>
<feBlend mode="normal" in="SourceGraphic" in2="effect1_dropShadow_2_3" result="shape"/>
</filter>
</defs>
</svg>
