<svg width="127" height="109" viewBox="0 0 127 109" fill="none" xmlns="http://www.w3.org/2000/svg">
<g filter="url(#filter0_d_2_3)">
<path d="M17.68 27.6C17.2533 27.4667 16.6867 27.4 15.98 27.4H14.32L14.26 32.44L15.78 32.42C16.7667 32.4067 17.5533 32.2067 18.14 31.82C18.7267 31.4333 19.02 30.7 19.02 29.62C19.02 28.5267 18.5733 27.8533 17.68 27.6ZM14.24 33.72L14.18 38.66L15.84 38.8C15.84 39.1733 15.7267 39.5733 15.5 40H10.9L10.84 39.3C11.4 39.1 11.9733 38.9467 12.56 38.84C12.48 33.7733 12.4133 29.9067 12.36 27.24C11.9867 27.1867 11.4 27.0267 10.6 26.76C10.6 26.5867 10.6333 26.3333 10.7 26H15.2C17.64 26 19.2267 26.3 19.96 26.9C20.68 27.4733 21.04 28.3733 21.04 29.6C21.04 31.6667 19.9067 33.0067 17.64 33.62L21.06 38.68L22.72 38.82C22.72 39.18 22.6067 39.5733 22.38 40H19.92L15.72 33.72H14.24ZM28.925 38.88C29.5117 38.88 30.4317 38.6 31.685 38.04C31.9383 38.3867 32.0717 38.6933 32.085 38.96C31.405 39.36 30.7383 39.6733 30.085 39.9C29.4317 40.1267 28.965 40.24 28.685 40.24C27.1383 40.24 25.9583 39.78 25.145 38.86C24.3317 37.9267 23.925 36.6267 23.925 34.96C23.925 33.2933 24.3183 31.9867 25.105 31.04C25.905 30.08 27.0983 29.6 28.685 29.6C29.9117 29.6 30.845 30.04 31.485 30.92C32.1383 31.8 32.465 32.98 32.465 34.46C32.3583 34.6467 32.2717 34.7733 32.205 34.84L25.765 34.74C25.7783 36.0867 26.0117 37.1133 26.465 37.82C26.9317 38.5267 27.7517 38.88 28.925 38.88ZM30.645 33.6C30.645 32.72 30.485 32.04 30.165 31.56C29.845 31.0667 29.3117 30.82 28.565 30.82C27.8183 30.82 27.1517 30.96 26.565 31.24C26.165 32.04 25.9117 32.86 25.805 33.7C26.8583 33.6867 28.4717 33.6533 30.645 33.6ZM40.3194 29.6C41.5994 29.6 42.526 29.92 43.0994 30.56C43.6727 31.1867 43.9594 32.1467 43.9594 33.44C43.9594 33.8133 43.906 35.5467 43.7994 38.64L45.4794 38.8C45.4794 39.1733 45.366 39.5733 45.1394 40H40.5394L40.4794 39.3C41.0927 39.0867 41.6927 38.9267 42.2794 38.82C42.1994 35.3267 42.126 33.3867 42.0594 33C42.006 32.6 41.9127 32.2533 41.7794 31.96C41.646 31.6667 41.446 31.46 41.1794 31.34C40.9127 31.22 40.5594 31.16 40.1194 31.16C39.2394 31.16 38.386 31.3733 37.5594 31.8C37.4794 34.84 37.426 37.12 37.3994 38.64L39.0794 38.8C39.0794 39.1733 38.966 39.5733 38.7394 40H34.1394L34.0794 39.3C34.6927 39.0867 35.2927 38.9267 35.8794 38.82C35.7994 35.4333 35.7327 32.9267 35.6794 31.3C34.946 31.26 34.3594 31.18 33.9194 31.06L33.9994 30.02C34.7194 29.82 35.766 29.72 37.1394 29.72C37.2994 29.96 37.4194 30.3067 37.4994 30.76C38.0727 30.4533 38.646 30.1867 39.2194 29.96C39.806 29.72 40.1727 29.6 40.3194 29.6ZM54.4436 33.46L54.3436 38.62C54.9169 38.66 55.4903 38.7533 56.0636 38.9L56.0236 39.6C55.8103 39.7067 55.4236 39.8267 54.8636 39.96C54.3169 40.08 53.7769 40.14 53.2436 40.14C53.0036 39.66 52.8703 39.2 52.8436 38.76C51.3236 39.76 50.2569 40.26 49.6436 40.26C48.6969 40.26 47.9369 40.0067 47.3636 39.5C46.7903 38.9933 46.5036 38.2867 46.5036 37.38C46.5036 35.2867 47.7836 34.2067 50.3436 34.14C51.8369 34.1 52.5903 34.08 52.6036 34.08L52.5836 33.4C52.5569 32.48 52.3836 31.82 52.0636 31.42C51.7436 31.0067 51.1703 30.8 50.3436 30.8C49.9969 30.8 49.6236 30.88 49.2236 31.04L48.7436 33.04C48.6769 33.0533 48.5636 33.06 48.4036 33.06L47.5836 33C47.3703 32.4267 47.2569 31.6333 47.2436 30.62C47.4969 30.4867 48.0769 30.2867 48.9836 30.02C49.8903 29.74 50.4703 29.6 50.7236 29.6C52.0836 29.6 53.0436 29.9 53.6036 30.5C54.1636 31.1 54.4436 32.0867 54.4436 33.46ZM50.0836 38.9C50.4703 38.9 51.3636 38.4667 52.7636 37.6L52.6636 35.1C51.7569 35.18 50.9969 35.2533 50.3836 35.32C49.7703 35.3867 49.2769 35.5667 48.9036 35.86C48.5303 36.14 48.3436 36.5867 48.3436 37.2C48.3436 38.3333 48.9236 38.9 50.0836 38.9ZM62.3448 38.68C62.7315 38.68 63.1648 38.6 63.6448 38.44C64.1248 38.2667 64.5182 38.06 64.8248 37.82C64.7715 34.98 64.7248 32.8267 64.6848 31.36C63.8582 31.36 63.2448 31.28 62.8448 31.12L62.9248 30.08C64.0582 29.88 64.9448 29.78 65.5848 29.78C66.2382 29.78 66.6515 29.7933 66.8248 29.82C66.8248 30.06 66.7848 30.38 66.7048 30.78C66.6382 31.18 66.5915 31.4 66.5648 31.44L66.3248 38.58C67.0315 38.62 67.6048 38.7 68.0448 38.82L68.0048 39.84C67.4182 40.0267 66.8515 40.12 66.3048 40.12C65.7582 40.12 65.4248 40.1133 65.3048 40.1C65.0515 39.5933 64.9048 39.1267 64.8648 38.7C64.2115 39.1933 63.6048 39.5733 63.0448 39.84C62.4982 40.1067 62.1382 40.24 61.9648 40.24C60.7915 40.24 59.9382 39.9267 59.4048 39.3C58.8848 38.66 58.6248 37.7267 58.6248 36.5C58.6248 36.4867 58.6848 34.78 58.8048 31.38C58.0315 31.38 57.3182 31.2933 56.6648 31.12L56.7448 30.08C57.8782 29.88 58.7582 29.78 59.3848 29.78C60.0115 29.78 60.4115 29.7933 60.5848 29.82C60.5848 30.14 60.5448 30.4933 60.4648 30.88C60.3848 31.2667 60.3382 31.4533 60.3248 31.44L60.3448 35.76C60.3448 36.7733 60.4715 37.5133 60.7248 37.98C60.9782 38.4467 61.5182 38.68 62.3448 38.68ZM71.7794 25.14C72.1927 25.14 72.486 25.1533 72.6594 25.18C72.6594 25.6467 72.5727 26.18 72.3994 26.78C72.2794 34.6467 72.2194 38.6 72.2194 38.64L73.8994 38.8C73.8994 39.1733 73.786 39.5733 73.5594 40H68.9594L68.8994 39.3C69.5127 39.0867 70.1127 38.9267 70.6994 38.82L70.4994 26.72C69.766 26.68 69.1794 26.6 68.7394 26.48L68.8194 25.44C69.4994 25.24 70.486 25.14 71.7794 25.14ZM76.4578 38.76L76.2978 31.22H74.7578L74.6978 30.52C74.8311 30.4267 75.2178 30.2533 75.8578 30L77.4978 27.44C77.7645 27.4667 77.9711 27.5333 78.1178 27.64L78.0978 29.84C79.0978 29.84 79.9178 29.9067 80.5578 30.04C80.5578 30.4 80.4445 30.7933 80.2178 31.22H78.0578C78.0311 32.82 78.0045 35.2467 77.9778 38.5C78.7245 38.54 79.4711 38.6733 80.2178 38.9L80.1978 39.6C80.0111 39.72 79.5311 39.86 78.7578 40.02C77.9978 40.18 77.3711 40.26 76.8778 40.26C76.8111 40.1533 76.7245 39.9267 76.6178 39.58C76.5111 39.22 76.4578 38.9467 76.4578 38.76ZM94.0863 27.6C93.6596 27.4667 93.0929 27.4 92.3863 27.4H90.7263L90.6663 32.44L92.1863 32.42C93.1729 32.4067 93.9596 32.2067 94.5463 31.82C95.1329 31.4333 95.4263 30.7 95.4263 29.62C95.4263 28.5267 94.9796 27.8533 94.0863 27.6ZM90.6463 33.72L90.5863 38.66L92.2463 38.8C92.2463 39.1733 92.1329 39.5733 91.9063 40H87.3063L87.2463 39.3C87.8063 39.1 88.3796 38.9467 88.9663 38.84C88.8863 33.7733 88.8196 29.9067 88.7663 27.24C88.3929 27.1867 87.8063 27.0267 87.0063 26.76C87.0063 26.5867 87.0396 26.3333 87.1063 26H91.6063C94.0463 26 95.6329 26.3 96.3663 26.9C97.0863 27.4733 97.4463 28.3733 97.4463 29.6C97.4463 31.6667 96.3129 33.0067 94.0463 33.62L97.4663 38.68L99.1263 38.82C99.1263 39.18 99.0129 39.5733 98.7863 40H96.3263L92.1263 33.72H90.6463ZM102.471 33.62C102.458 33.7267 102.451 33.9733 102.451 34.36C102.451 34.7467 102.491 35.1867 102.571 35.68C102.651 36.1733 102.791 36.6933 102.991 37.24C103.191 37.7733 103.505 38.2067 103.931 38.54C104.358 38.8733 104.865 39.04 105.451 39.04C106.385 39.04 107.065 38.7267 107.491 38.1C107.918 37.4733 108.131 36.6467 108.131 35.62C108.131 34.5933 107.951 33.82 107.591 33.3C107.245 32.7667 106.571 32.5 105.571 32.5C104.571 32.5 103.538 32.8733 102.471 33.62ZM105.671 31.26C107.005 31.26 108.051 31.64 108.811 32.4C109.585 33.1467 109.971 34.2667 109.971 35.76C109.971 37.24 109.545 38.36 108.691 39.12C107.851 39.88 106.751 40.26 105.391 40.26C104.071 40.26 102.958 39.7467 102.051 38.72C101.585 38.2 101.218 37.4667 100.951 36.52C100.685 35.56 100.551 34.5067 100.551 33.36C100.551 32.2133 100.698 31.2133 100.991 30.36C101.285 29.5067 101.671 28.7933 102.151 28.22C102.645 27.6333 103.211 27.1333 103.851 26.72C105.065 25.92 106.391 25.52 107.831 25.52C107.991 25.68 108.071 26.0333 108.071 26.58C106.285 26.7133 104.925 27.28 103.991 28.28C103.071 29.2667 102.538 30.6867 102.391 32.54C102.765 32.1933 103.291 31.8933 103.971 31.64C104.651 31.3867 105.218 31.26 105.671 31.26Z" fill="#FFF5F5"/>
</g>
<path d="M5.31816 62.4579C4.96385 61.8775 4.80415 61.2896 4.83904 60.6943C4.88246 60.0937 5.08397 59.5313 5.44354 59.0072C5.81687 58.4864 6.30227 58.0436 6.89974 57.6789C7.54842 57.2829 8.20271 57.0592 8.86261 57.0079C9.53104 56.9513 10.1494 57.0718 10.7176 57.3693C11.2996 57.6701 11.786 58.1406 12.1768 58.7807C12.2966 58.977 12.4349 59.2324 12.5917 59.5468C12.7569 59.8559 12.8929 60.1361 12.9994 60.3874L15.9185 58.6055L16.3874 59.3737L8.17289 64.3707C8.00219 64.4749 7.89334 64.594 7.84634 64.7282C7.81309 64.8656 7.83294 64.9941 7.90589 65.1136C7.99967 65.2672 8.14777 65.3467 8.35019 65.352L8.25096 66.1683C7.99356 66.1497 7.78122 66.0801 7.61394 65.9596C7.44334 65.8529 7.29551 65.6971 7.17046 65.4922C6.98809 65.1935 6.929 64.8664 6.99316 64.5109C7.06254 64.1639 7.24233 63.9018 7.53253 63.7247C7.06607 63.7283 6.64161 63.6183 6.25917 63.3949C5.88193 63.1799 5.56826 62.8676 5.31816 62.4579ZM6.03297 62.0743C6.26223 62.4499 6.55505 62.728 6.91145 62.9088C7.27305 63.0981 7.66553 63.1749 8.08887 63.139C8.4008 63.1126 8.7104 63.0057 9.01768 62.8181L12.3208 60.8017L12.1951 60.5094C12.01 60.0717 11.8367 59.7206 11.6751 59.456C11.102 58.5171 10.453 57.9819 9.72829 57.8502C9.01728 57.7219 8.26062 57.9026 7.4583 58.3924C6.69012 58.8613 6.15939 59.4313 5.8661 60.1024C5.58657 60.7769 5.64219 61.4341 6.03297 62.0743Z" fill="#FFF5F5"/>
<path d="M14.2721 74.0093C13.7456 73.4752 13.4102 72.9141 13.266 72.3262C13.1217 71.7382 13.1471 71.1586 13.3421 70.5872C13.5513 70.016 13.9016 69.4881 14.393 69.0038C14.8773 68.5264 15.4351 68.1521 16.0664 67.8809C16.7047 67.6168 17.3489 67.5225 17.9989 67.5979C18.656 67.6804 19.2442 67.9852 19.7637 68.5122C20.1076 68.8611 20.3594 69.2519 20.5189 69.6844C20.6784 70.1169 20.7178 70.5414 20.637 70.9581C20.5632 71.3818 20.3625 71.7551 20.0349 72.078C19.5079 72.5975 18.8773 72.7768 18.143 72.616C17.4159 72.4481 16.6663 71.9653 15.8942 71.1678L14.7466 69.9822C14.2614 70.5868 14.0238 71.179 14.0337 71.759C14.0507 72.346 14.3225 72.9066 14.8489 73.4407C15.1648 73.7612 15.4989 74.0147 15.8511 74.2011C16.2175 74.3875 16.6196 74.5177 17.0575 74.5916L16.9461 75.3333C16.4656 75.2732 15.9894 75.1319 15.5172 74.9093C15.0592 74.6868 14.6441 74.3868 14.2721 74.0093ZM16.5866 70.7591C17.7379 71.9271 18.6803 72.1496 19.4138 71.4265C19.7699 71.0755 19.9106 70.6912 19.8358 70.2734C19.7752 69.8558 19.5694 69.4689 19.2184 69.1128C18.8253 68.714 18.3779 68.488 17.8762 68.4349C17.3815 68.3889 16.9002 68.4632 16.4321 68.6578C15.964 68.8525 15.5732 69.1042 15.2599 69.4131L16.5866 70.7591Z" fill="#FFF5F5"/>
<path d="M29.0396 75.9861C29.6233 76.3541 30.0248 76.8141 30.2442 77.3662C30.4774 77.9151 30.5408 78.4989 30.4345 79.1175C30.3367 79.7415 30.0984 80.3538 29.7198 80.9544C29.3092 81.6058 28.8238 82.1037 28.2639 82.4481C27.7039 82.7925 27.1006 82.9619 26.4541 82.9562C25.8128 82.942 25.1707 82.7323 24.5278 82.327C24.3163 82.1937 23.8477 81.8214 23.1218 81.2101L21.018 84.5473L20.2947 84.0913L25.1904 76.3257C25.6117 75.6574 25.7434 75.0548 25.5854 74.5178L26.413 74.3302C26.4928 74.5224 26.5444 74.75 26.5677 75.013C26.5911 75.2759 26.5657 75.5318 26.4916 75.7806C27.2766 75.3417 28.126 75.4102 29.0396 75.9861ZM24.8964 81.6018C25.6915 82.1031 26.4319 82.2507 27.1175 82.0445C27.8168 81.8353 28.4172 81.333 28.9185 80.5379C29.3931 79.785 29.6143 79.0497 29.5822 78.3319C29.5584 77.6195 29.242 77.0713 28.633 76.6873C28.1508 76.3834 27.626 76.2594 27.0587 76.3155C26.4999 76.3769 26.0542 76.6338 25.7217 77.0862L23.5218 80.5757C24.2521 81.1424 24.7103 81.4845 24.8964 81.6018Z" fill="#FFF5F5"/>
<path d="M42.1173 89.5814C41.9083 89.7327 41.701 89.8161 41.4954 89.8315C41.2961 89.8595 41.0827 89.8353 40.8552 89.7589C40.5234 89.6476 40.2677 89.4352 40.0881 89.1217C39.918 88.8114 39.8871 88.4952 39.9953 88.1728C39.0865 88.7117 38.1677 88.8251 37.2386 88.5133C36.5276 88.2746 36.0303 87.9178 35.7467 87.4428C35.4663 86.9584 35.4248 86.3591 35.6224 85.6448L36.6439 82.6017C36.8953 81.8528 36.8808 81.2361 36.6004 80.7517L37.3602 80.3738C37.5399 80.5924 37.669 80.8836 37.7473 81.2474C37.8256 81.6112 37.8058 81.9685 37.6881 82.3193L36.5997 85.5615C36.4183 86.1019 36.3968 86.5588 36.5352 86.9322C36.683 87.3088 37.0318 87.5894 37.5817 87.774C38.1031 87.949 38.5868 87.9849 39.033 87.8814C39.4885 87.7812 39.9223 87.526 40.3343 87.1158L42.0383 82.0866L42.8915 82.373L40.9011 88.2554C40.8374 88.445 40.8308 88.6062 40.8811 88.7392C40.9441 88.8658 41.0419 88.9514 41.1746 88.9959C41.3453 89.0532 41.5098 89.0188 41.6682 88.8926L42.1173 89.5814Z" fill="#FFF5F5"/>
<path d="M49.7728 90.066C49.755 90.2048 49.7843 90.3296 49.8608 90.4402C49.9485 90.5423 50.0569 90.6015 50.1858 90.6181C50.3842 90.6436 50.5388 90.5778 50.6498 90.4207L51.2413 90.9958C51.1402 91.1542 50.9829 91.2801 50.7692 91.3737C50.5568 91.4573 50.3267 91.4831 50.0787 91.4513C49.682 91.4003 49.3706 91.2342 49.1446 90.9531C48.9186 90.672 48.8311 90.3331 48.8821 89.9363L49.6757 83.7621L50.5684 83.8769L49.7728 90.066ZM50.2017 82.8467C50.0331 82.8251 49.892 82.7464 49.7783 82.6108C49.6759 82.4666 49.6355 82.3102 49.6572 82.1416C49.6801 81.963 49.7588 81.8219 49.8931 81.7182C50.0386 81.6058 50.1957 81.5605 50.3643 81.5821C50.5428 81.6051 50.6833 81.6887 50.7857 81.8329C50.8994 81.9685 50.9447 82.1256 50.9218 82.3041C50.9001 82.4727 50.8165 82.6132 50.671 82.7256C50.5367 82.8293 50.3803 82.8697 50.2017 82.8467Z" fill="#FFF5F5"/>
<path d="M60.1488 91.9177C59.1401 91.9694 58.1814 91.6279 57.2727 90.8934L57.7364 90.2689C58.1317 90.5591 58.5185 90.7796 58.8967 90.9304C59.2844 91.0708 59.6929 91.13 60.1224 91.108C60.6617 91.0804 61.0747 90.9341 61.3616 90.6691C61.6579 90.3936 61.7948 90.0361 61.7723 89.5967C61.758 89.3171 61.6766 89.0959 61.5281 88.9333C61.389 88.7602 61.2019 88.6246 60.9665 88.5265C60.7412 88.4279 60.3328 88.2736 59.7413 88.0635C59.2007 87.8709 58.7815 87.7021 58.4837 87.5571C58.1859 87.4122 57.9463 87.2292 57.7647 87.0082C57.5827 86.7772 57.4825 86.4819 57.4641 86.1224C57.4339 85.5331 57.6196 85.053 58.0212 84.682C58.4222 84.301 58.9723 84.0926 59.6714 84.0569C60.0309 84.0385 60.388 84.0702 60.7426 84.1522C61.1073 84.2337 61.4193 84.3629 61.6787 84.5399L61.3371 85.2032C60.8634 84.9471 60.337 84.8338 59.7577 84.8635C59.2983 84.887 58.9484 84.995 58.7079 85.1876C58.4674 85.3801 58.3556 85.6412 58.3725 85.9707C58.3853 86.2204 58.4607 86.4218 58.5987 86.575C58.7467 86.7276 58.9284 86.8535 59.1437 86.9526C59.3685 87.0412 59.7357 87.1726 60.2453 87.3468C60.8263 87.5474 61.2765 87.7346 61.5958 87.9085C61.9245 88.0719 62.1807 88.2841 62.3643 88.5451C62.5574 88.7955 62.6639 89.1155 62.6838 89.505C62.7191 90.1941 62.5027 90.7609 62.0349 91.2054C61.5764 91.6394 60.9478 91.8768 60.1488 91.9177Z" fill="#FFF5F5"/>
<path d="M69.9062 81.7097C69.6257 82.1105 69.3257 82.4337 69.006 82.6794C68.6961 82.9226 68.3327 83.0968 67.9158 83.202L67.5359 82.4934C67.8267 82.42 68.1066 82.2824 68.3754 82.0805C68.6538 81.8761 68.9153 81.6452 69.1597 81.3875C69.4041 81.1299 69.7876 80.7083 70.3102 80.1226L70.4265 80.0933L72.8669 89.7651L71.9943 89.9853L69.9062 81.7097Z" fill="#FFF5F5"/>
<path d="M79.4024 76.9349C80.0206 76.6284 80.6561 76.5143 81.3087 76.5926C81.957 76.6619 82.5599 76.9099 83.1174 77.3367C83.675 77.7634 84.1292 78.3307 84.4801 79.0385C84.8621 79.809 85.0538 80.6348 85.0552 81.5158C85.0612 82.3834 84.8794 83.2325 84.5099 84.0631C84.2259 84.7061 83.8461 85.2795 83.3703 85.7832C82.9035 86.2825 82.3654 86.6831 81.7562 86.9852L81.4032 86.2393C81.9363 85.9862 82.407 85.6413 82.8155 85.2044C83.2329 84.7631 83.5633 84.2589 83.8068 83.6917C84.0187 83.1737 84.1503 82.6285 84.2014 82.0563C84.2481 81.475 84.203 80.9561 84.0659 80.4995C84.0507 81.0093 83.8836 81.5051 83.5644 81.987C83.2497 82.4555 82.8505 82.8097 82.3667 83.0495C81.8202 83.3204 81.2406 83.4347 80.6281 83.3924C80.0155 83.35 79.4549 83.1648 78.9462 82.8366C78.4331 82.4994 78.041 82.0575 77.7701 81.511C77.4947 80.9555 77.3826 80.3805 77.4339 79.7858C77.4807 79.1823 77.6749 78.6284 78.0165 78.1242C78.367 77.6156 78.829 77.2191 79.4024 76.9349ZM79.7621 77.6941C79.341 77.9029 79.0023 78.1991 78.7461 78.5829C78.4988 78.9621 78.3588 79.3776 78.3259 79.8291C78.2931 80.2807 78.3788 80.7126 78.5831 81.1247C78.7874 81.5369 79.0792 81.8666 79.4585 82.1138C79.8378 82.3611 80.2554 82.5056 80.7115 82.5474C81.163 82.5803 81.5949 82.4946 82.007 82.2902C82.4461 82.0726 82.7937 81.7719 83.0499 81.3882C83.3061 81.0045 83.4462 80.589 83.4701 80.1419C83.4985 79.6814 83.4061 79.2361 83.1929 78.806C82.9886 78.3939 82.6945 78.0709 82.3107 77.837C81.9314 77.5897 81.5137 77.4564 81.0576 77.4369C80.6061 77.4041 80.1742 77.4898 79.7621 77.6941Z" fill="#FFF5F5"/>
<path d="M95.9878 78.0786C95.2222 78.7219 94.4348 79.044 93.6256 79.0448C92.81 79.0379 92.1127 78.6899 91.5337 78.0009C91.1541 77.5492 90.9414 77.0552 90.8957 76.519C90.8435 75.975 90.8993 75.373 91.063 74.7129C90.1534 74.8895 89.4252 74.6525 88.8783 74.0017C88.5888 73.6572 88.4201 73.27 88.3723 72.84C88.3244 72.4099 88.3969 71.9833 88.5898 71.56C88.7839 71.1225 89.0799 70.7366 89.478 70.402C89.8761 70.0675 90.3073 69.8423 90.7716 69.7264C91.2372 69.5965 91.6814 69.5889 92.1044 69.7036C92.521 69.8107 92.8644 70.0251 93.1346 70.3466C93.4498 70.7217 93.6231 71.1378 93.6544 71.5948C93.6793 72.0441 93.6203 72.479 93.4774 72.8996C94.0899 72.7114 94.6749 72.677 95.2323 72.7963C95.7898 72.9156 96.2744 73.2203 96.6861 73.7102C97.2652 74.3993 97.4846 75.1423 97.3445 75.9392C97.1979 76.7285 96.7457 77.4417 95.9878 78.0786ZM92.6509 73.2218C92.7807 72.7078 92.8429 72.2767 92.8377 71.9285C92.84 71.5738 92.7222 71.2548 92.4842 70.9716C92.2011 70.6347 91.8252 70.4673 91.3566 70.4692C90.888 70.4711 90.4432 70.649 90.0221 71.0028C89.6011 71.3567 89.3492 71.7642 89.2666 72.2255C89.184 72.6868 89.2843 73.0859 89.5673 73.4227C90.0177 73.9586 90.6627 74.0501 91.5025 73.6971L92.463 73.3013L92.6509 73.2218ZM95.4667 77.4585C96.0485 76.9695 96.3786 76.4374 96.4569 75.8622C96.5428 75.2806 96.3767 74.7409 95.9585 74.2433C95.6562 73.8835 95.316 73.673 94.938 73.6118C94.5601 73.5506 94.1671 73.5804 93.7592 73.7012C93.3512 73.822 92.8476 74.0231 92.2482 74.3047L91.9377 74.4481L91.8702 74.8575C91.7577 75.5007 91.7207 76.0085 91.7594 76.381C91.798 76.7534 91.9428 77.0889 92.1937 77.3875C92.6248 77.9004 93.1342 78.1646 93.7219 78.1801C94.3033 78.188 94.8848 77.9474 95.4667 77.4585Z" fill="#FFF5F5"/>
<path d="M106.103 67.4291C105.694 67.9853 105.187 68.3815 104.579 68.6178C103.963 68.848 103.31 68.9017 102.618 68.7788C101.927 68.6558 101.263 68.3606 100.626 67.893C99.9331 67.3841 99.3845 66.7457 98.9807 65.9777C98.5747 65.1958 98.345 64.3511 98.2918 63.4436C98.2486 62.742 98.3197 62.0623 98.505 61.4044C98.6962 60.7384 98.993 60.1313 99.3954 59.5832L100.052 60.0835C99.6943 60.5532 99.4317 61.0799 99.2637 61.6636C99.1015 62.2393 99.0426 62.8349 99.0869 63.4505C99.1366 64.008 99.2742 64.5557 99.4997 65.0934C99.7171 65.6252 99.9916 66.0624 100.323 66.4051C100.102 65.9453 100.024 65.4351 100.088 64.8744C100.151 64.2997 100.341 63.7947 100.661 63.3595C101.022 62.8677 101.484 62.5 102.048 62.2562C102.611 62.0125 103.199 61.9225 103.809 61.9863C104.412 62.0441 104.959 62.2535 105.451 62.6145C105.95 62.9815 106.318 63.4437 106.554 64.0014C106.782 64.5531 106.856 65.1353 106.779 65.7482C106.707 66.3529 106.482 66.9132 106.103 67.4291ZM105.435 66.9199C105.713 66.5411 105.875 66.1264 105.92 65.6759C105.971 65.2174 105.908 64.78 105.73 64.3638C105.551 63.9476 105.277 63.6034 104.906 63.3311C104.535 63.0589 104.125 62.9001 103.674 62.8547C103.224 62.8093 102.79 62.8757 102.374 63.054C101.95 63.2263 101.601 63.4979 101.329 63.8687C101.039 64.2636 100.869 64.6904 100.817 65.149C100.766 65.6075 100.833 66.0478 101.02 66.47C101.204 66.8781 101.49 67.2242 101.876 67.5083C102.247 67.7805 102.658 67.9393 103.108 67.9847C103.557 68.0162 103.989 67.9427 104.405 67.7645C104.819 67.5722 105.162 67.2907 105.435 66.9199Z" fill="#FFF5F5"/>
<defs>
<filter id="filter0_d_2_3" x="6.60001" y="25.14" width="107.371" height="23.12" filterUnits="userSpaceOnUse" color-interpolation-filters="sRGB">
<feFlood flood-opacity="0" result="BackgroundImageFix"/>
<feColorMatrix in="SourceAlpha" type="matrix" values="0 0 0 0 0 0 0 0 0 0 0 0 0 0 0 0 0 0 127 0" result="hardAlpha"/>
<feOffset dy="4"/>
<feGaussianBlur stdDeviation="2"/>
<feComposite in2="hardAlpha" operator="out"/>
<feColorMatrix type="matrix" values="0 0 0 0 0 0 0 0 0 0 0 0 0 0 0 0 0 0 0.25 0"/>
<feBlend mode="normal" in2="BackgroundImageFix" result="effect1_dropShadow_2_3"/>
<feBlend mode="normal" in="SourceGraphic" in2="effect1_dropShadow_2_3" result="shape"/>
</filter>
</defs>
</svg>
